<?xml version="1.0" encoding="UTF-8"?>
<svg width="1000px" height="1000px" viewBox="0 0 1000 1000" version="1.1" xmlns="http://www.w3.org/2000/svg" xmlns:xlink="http://www.w3.org/1999/xlink">
    <!-- Generator: Sketch 61.2 (89653) - https://sketch.com -->
    <title>Logo</title>
    <desc>Created with Sketch.</desc>
    <defs>
        <linearGradient x1="50%" y1="0%" x2="50%" y2="100%" id="linearGradient-1">
            <stop stop-color="#32C5FF" offset="0%"></stop>
            <stop stop-color="#497FFF" offset="48.6196157%"></stop>
            <stop stop-color="#6236FF" offset="100%"></stop>
        </linearGradient>
        <path d="M725.928223,779.268555 L742.259536,938.843527 C670.593024,978.454113 588.179449,1001 500.5,1001 C419.646984,1001 343.271795,981.828144 275.672469,947.782469 L367.993652,779.268555 L725.928223,779.268555 Z M500.5,0 C533.91306,-6.13787961e-15 566.561392,3.27419253 598.141655,9.51923731 L128.240863,835.056098 C48.5139959,746.402532 1.57510142e-14,629.116792 0,500.5 C-3.38515052e-14,224.081483 224.081483,5.07772579e-14 500.5,0 Z M1001,500.5 C1001,591.59114 976.665413,676.998632 934.142483,750.576235 L847.557014,139.872418 C942.146697,230.924405 1001,358.83924 1001,500.5 Z M664.624512,229.512695 L704.834473,611.836914 L458.30127,611.836914 L664.624512,229.512695 Z" id="path-2"></path>
        <filter x="-0.7%" y="-0.5%" width="101.4%" height="101.4%" filterUnits="objectBoundingBox" id="filter-3">
            <feOffset dx="0" dy="2" in="SourceAlpha" result="shadowOffsetOuter1"></feOffset>
            <feGaussianBlur stdDeviation="2" in="shadowOffsetOuter1" result="shadowBlurOuter1"></feGaussianBlur>
            <feColorMatrix values="0 0 0 0 0.516445879   0 0 0 0 0.516445879   0 0 0 0 0.516445879  0 0 0 0.5 0" type="matrix" in="shadowBlurOuter1"></feColorMatrix>
        </filter>
    </defs>
    <g id="Logo" stroke="none" stroke-width="1" fill="none" fill-rule="evenodd">
        <g id="Group">
            <g id="Combined-Shape">
                <use fill="black" fill-opacity="1" filter="url(#filter-3)" xlink:href="#path-2"></use>
                <use fill="url(#linearGradient-1)" fill-rule="evenodd" xlink:href="#path-2"></use>
            </g>
        </g>
    </g>
</svg>